<svg xmlns="http://www.w3.org/2000/svg" viewBox="0 0 941.7 244.8"><style>.st69{opacity:.5}.st91{opacity:.15}.st92{fill:none;stroke:#99c4d8;stroke-width:2}.st92,.st93,.st95{stroke-miterlimit:10}.st93{fill:#f0f4f7;stroke:#99c4d8;stroke-width:2;stroke-linecap:round;stroke-linejoin:round}.st95{fill:none;stroke:#9aafbb;stroke-width:.5}.st96{fill:#cee2ad}.st109,.st111{fill:none;stroke:#99c4d8;stroke-width:2;stroke-linecap:round;stroke-linejoin:round;stroke-miterlimit:10}.st111{stroke:#d4e6f0}</style><g id="Tutorial"><g class="st91"><path class="st92" d="M487.5 243.2h-55.4v-16.8l26.8-7.5 28.6 7.5z"/><path class="st92" d="M437 230.5h45.6v12.8H437zm-4.9 12.7h-55.5v-16.8l26.9-7.5 28.6 7.5z"/><path class="st92" d="M381.5 230.5h45.6v12.8h-45.6z"/><path class="st93" d="M109.7 185.6h24.6v57.9h-24.6zm-40.9 18.5h19v39.5h-19z"/><path class="st93" d="M50.3 216.4h18.6v27.1H50.3zm84-40h28.5v67.1h-28.5zm-46.5 19.2h21.9v47.9H87.8zm-29.3 20.8h10.3v-12.3h9.5v-19.5l-19.8 13.9zm33.3-20.8l7-6.7 6.9 6.7z"/><path class="st93" d="M180.2 243.5h-17.4v-44h26.7v14.3h-9.3zm-17.4-50.7h11.4l6.3 6.7h-17.7zm-24.9-23.2h21.4v6.8h-21.4z"/><path class="st92" d="M266.9 235h25.7m-85.4-91.8v13.2"/><path d="M199 165.9V182m8.2-16.1V182m8.4-16.1V182" stroke="#99c4d8" stroke-width="2" stroke-linejoin="round" fill="none" stroke-miterlimit="10"/><path class="st92" d="M200.6 182h13.2v31.9h-13.2zm-9.2-16.1H223V182h-31.6zm3.6-4.9h24.5v4.9H195zm7.4-5.1h9.7v4.3h-9.7zm4.8-12.7v13.2"/><circle class="st92" cx="207.2" cy="141.1" r="2.1"/><path class="st92" d="M199 165.9V182m8.2-16.1V182m8.4-16.1V182m115.1 61.5H226.6l-7.4-29.7v-4.2h118.9v4.2zm-106.1-47.9h108.8v14H224.6zm18.4 0v13.8m19.2-13.7v13.7m17.6-13.7v13.8m17.6-13.7v13.7m17.7-13.6v13.7m-2.1-14h-67.9c0-3.2 2.6-5.9 5.9-5.9h56.1c3.2.1 5.9 2.7 5.9 5.9zm-91 29.7h113.2m-93.9 18.2v-18.2m25.6 0v18.2m25.7 0v-18.2m25.6 0v18.2"/><path class="st92" d="M336.2 221.5h40.4m-45.9 22h45.9v-29.7h-38.5zm-104.1 0h-46v-29.7h38.6zm-5.5-22h-40.5"/><path class="st93" d="M360.3 209.6h11.3v4h-11.3z"/><path class="st92" d="M364.1 209.6l1.2-5.9h1.6l1 5.9z"/><path class="st93" d="M365.5 196.4l7.8-3.4-1.5 9.2"/><circle cx="374" cy="192.3" r="1.2" fill="#99c4d8"/><path class="st93" d="M368.5 199.1l4.8-6.1m-1.3 10.4c-1 1-2.4 1.6-4 1.6-3.2 0-5.8-2.6-5.8-5.8 0-1.3.4-2.6 1.2-3.5l8.6 7.7z"/></g><path class="st95" d="M347.2 238.9v5.6"/><path class="st96" d="M343.7 234.8c0 3.3 1.5 4.3 3.5 4.3s3.5-1.1 3.5-4.3c0-3.3-1.5-11.5-3.5-11.5s-3.5 8.2-3.5 11.5z"/><path class="st95" d="M134.3 238.9v5.6"/><path class="st96" d="M130.9 234.8c0 3.3 1.5 4.3 3.5 4.3s3.5-1.1 3.5-4.3c0-3.3-1.5-11.5-3.5-11.5s-3.5 8.2-3.5 11.5z"/><path class="st95" d="M536.9 238.9v5.6"/><path class="st96" d="M533.5 234.8c0 3.3 1.5 4.3 3.5 4.3s3.5-1.1 3.5-4.3c0-3.3-1.5-11.5-3.5-11.5s-3.5 8.2-3.5 11.5z"/><path class="st95" d="M622.7 238.9v5.6"/><path class="st96" d="M619.3 234.8c0 3.3 1.5 4.3 3.5 4.3s3.5-1.1 3.5-4.3c0-3.3-1.5-11.5-3.5-11.5s-3.5 8.2-3.5 11.5z"/><path class="st95" d="M693 238.9v5.6"/><path class="st96" d="M689.5 234.8c0 3.3 1.5 4.3 3.5 4.3s3.5-1.1 3.5-4.3c0-3.3-1.5-11.5-3.5-11.5s-3.5 8.2-3.5 11.5z"/><path class="st95" d="M757.1 238.9v5.6"/><path class="st96" d="M753.6 234.8c0 3.3 1.5 4.3 3.5 4.3s3.5-1.1 3.5-4.3c0-3.3-1.5-11.5-3.5-11.5s-3.5 8.2-3.5 11.5z"/><path class="st95" d="M124.3 238.9v5.6"/><path class="st96" d="M120.9 234.8c0 3.3 1.5 4.3 3.5 4.3s3.5-1.1 3.5-4.3c0-3.3-1.5-11.5-3.5-11.5s-3.5 8.2-3.5 11.5z"/><path class="st95" d="M427.1 238.9v5.6"/><path class="st96" d="M423.6 234.8c0 3.3 1.5 4.3 3.5 4.3s3.5-1.1 3.5-4.3c0-3.3-1.5-11.5-3.5-11.5s-3.5 8.2-3.5 11.5z"/><path class="st95" d="M437.1 238.9v5.6"/><path class="st96" d="M433.6 234.8c0 3.3 1.5 4.3 3.5 4.3s3.5-1.1 3.5-4.3c0-3.3-1.5-11.5-3.5-11.5s-3.5 8.2-3.5 11.5z"/><path class="st95" d="M795.4 238.9v5.6"/><path class="st96" d="M791.9 234.8c0 3.3 1.5 4.3 3.5 4.3s3.5-1.1 3.5-4.3c0-3.3-1.5-11.5-3.5-11.5s-3.5 8.2-3.5 11.5z"/><path class="st95" d="M846.2 238.9v5.6"/><path class="st96" d="M842.7 234.8c0 3.3 1.5 4.3 3.5 4.3s3.5-1.1 3.5-4.3c0-3.3-1.5-11.5-3.5-11.5s-3.5 8.2-3.5 11.5z"/><path class="st95" d="M203 238.9v5.6"/><path class="st96" d="M199.5 234.8c0 3.3 1.5 4.3 3.5 4.3s3.5-1.1 3.5-4.3c0-3.3-1.5-11.5-3.5-11.5s-3.5 8.2-3.5 11.5z"/><path class="st95" d="M213 238.9v5.6"/><path class="st96" d="M209.5 234.8c0 3.3 1.5 4.3 3.5 4.3s3.5-1.1 3.5-4.3c0-3.3-1.5-11.5-3.5-11.5s-3.5 8.2-3.5 11.5z"/><path class="st95" d="M39.9 238.9v5.6"/><path class="st96" d="M36.5 234.8c0 3.3 1.5 4.3 3.5 4.3s3.5-1.1 3.5-4.3c0-3.3-1.5-11.5-3.5-11.5s-3.5 8.2-3.5 11.5z"/><path class="st95" d="M682.1 238.9v5.6"/><path class="st96" d="M678.6 234.8c0 3.3 1.5 4.3 3.5 4.3s3.5-1.1 3.5-4.3c0-3.3-1.5-11.5-3.5-11.5s-3.5 8.2-3.5 11.5z"/><path fill="none" stroke="#133f5d" stroke-width=".5" stroke-linecap="round" stroke-miterlimit="10" d="M941.5 244.5H.3"/><g class="st91"><path class="st109" d="M435.2 18.6c-2.1 0-3.9 1.3-4.7 3-.4-.1-.8-.1-1.2-.1-2.8 0-5.1 2.3-5.1 5.1s2.3 5.1 5.1 5.1c.6 0 1.2-.1 1.8-.3a4.6 4.6 0 003.6 1.7c1.6 0 2.9-.8 3.8-1.9.6.3 1.3.5 2 .5 1.4 0 2.6-.6 3.5-1.6h.1c2.2 0 3.9-1.7 3.9-3.9s-1.7-3.9-3.9-3.9c-.6 0-1.2.1-1.7.4-.6-.3-1.2-.4-1.9-.4h-.6c-.5-2.1-2.4-3.7-4.7-3.7z"/></g><g class="st91"><path class="st109" d="M396.8 90.5c-2.1 0-3.9 1.3-4.7 3-.4-.1-.8-.1-1.2-.1-2.8 0-5.1 2.3-5.1 5.1s2.3 5.1 5.1 5.1c.6 0 1.2-.1 1.8-.3a4.6 4.6 0 003.6 1.7c1.6 0 2.9-.8 3.8-1.9.6.3 1.3.5 2 .5 1.4 0 2.6-.6 3.5-1.6h.1c2.2 0 3.9-1.7 3.9-3.9s-1.7-3.9-3.9-3.9c-.6 0-1.2.1-1.7.4-.6-.3-1.2-.4-1.9-.4h-.6c-.4-2.1-2.4-3.7-4.7-3.7z"/></g><g class="st69"><path class="st111" d="M500.9 3.1c1.3 1.5 3.1 1.3 4.4 5.8 2.4-1.7 4.3-2.6 8.8-3m5.5 11.9c-1.3.5-2.4-.3-4.8 2.1-1-1.9-1.8-3.1-4.6-4.9"/></g><g class="st91"><path class="st109" d="M688.5 12.3c-2.1 0-3.9 1.3-4.7 3-.4-.1-.8-.1-1.2-.1-2.8 0-5.1 2.3-5.1 5.1s2.3 5.1 5.1 5.1c.6 0 1.2-.1 1.8-.3a4.6 4.6 0 003.6 1.7c1.6 0 2.9-.8 3.8-1.9.6.3 1.3.5 2 .5 1.4 0 2.6-.6 3.5-1.6h.1c2.2 0 3.9-1.7 3.9-3.9s-1.7-3.9-3.9-3.9c-.6 0-1.2.1-1.7.4-.6-.3-1.2-.4-1.9-.4h-.6c-.4-2.2-2.4-3.7-4.7-3.7z"/></g><g class="st91"><path class="st109" d="M886.8 51.8c-2.1 0-3.9 1.3-4.7 3-.4-.1-.8-.1-1.2-.1-2.8 0-5.1 2.3-5.1 5.1s2.3 5.1 5.1 5.1c.6 0 1.2-.1 1.8-.3a4.6 4.6 0 003.6 1.7c1.6 0 2.9-.8 3.8-1.9.6.3 1.3.5 2 .5 1.4 0 2.6-.6 3.5-1.6h.1c2.2 0 3.9-1.7 3.9-3.9s-1.7-3.9-3.9-3.9c-.6 0-1.2.1-1.7.4-.6-.3-1.2-.4-1.9-.4h-.6c-.5-2.2-2.4-3.7-4.7-3.7z"/></g><path d="M445.7.5c-.2-.1-.5-.3-.7-.5l.7.5z" fill="#72cdf2"/><g class="st69"><path class="st111" d="M716.7 76.5c1.8.6 3.3-.5 6.8 2.7 1.2-2.7 2.3-4.5 6-7.2m10.8 7.4c-.9 1.1-2.2 1-3 4.2-1.8-1.1-3.2-1.7-6.5-1.8"/></g></g></svg>