<svg id="e6czno9MJVQ1" xmlns="http://www.w3.org/2000/svg" xmlns:xlink="http://www.w3.org/1999/xlink" viewBox="0 0 39 20" shape-rendering="geometricPrecision" text-rendering="geometricPrecision">
<style><![CDATA[
#e6czno9MJVQ3 {animation: e6czno9MJVQ3_c_o 10000ms linear infinite normal forwards}@keyframes e6czno9MJVQ3_c_o { 0% {opacity: 1} 23% {opacity: 1} 24% {opacity: 0} 93% {opacity: 0} 94% {opacity: 1} 100% {opacity: 1}} #e6czno9MJVQ5_to {animation: e6czno9MJVQ5_to__to 10000ms linear infinite normal forwards}@keyframes e6czno9MJVQ5_to__to { 0% {transform: translate(0px,10px)} 18% {transform: translate(0px,10px);animation-timing-function: cubic-bezier(0.81,-0.29,0.25,1.36)} 23% {transform: translate(9.5px,10px)} 94% {transform: translate(9.5px,10px);animation-timing-function: cubic-bezier(0.81,-0.29,0.25,1.36)} 99% {transform: translate(0px,10px)} 100% {transform: translate(0px,10px)}} #e6czno9MJVQ6_to {animation: e6czno9MJVQ6_to__to 10000ms linear infinite normal forwards}@keyframes e6czno9MJVQ6_to__to { 0% {transform: translate(19.366305px,10.746px)} 18% {transform: translate(19.366305px,10.746px);animation-timing-function: cubic-bezier(0.81,-0.29,0.25,1.36)} 23% {transform: translate(53.907644px,10.746px)} 94% {transform: translate(53.907644px,10.746px);animation-timing-function: cubic-bezier(0.81,-0.29,0.25,1.36)} 99% {transform: translate(19.364394px,10.746001px)} 100% {transform: translate(19.364394px,10.746001px)}} #e6czno9MJVQ12_to {animation: e6czno9MJVQ12_to__to 10000ms linear infinite normal forwards}@keyframes e6czno9MJVQ12_to__to { 0% {transform: translate(-14.508528px,3.473297px)} 18% {transform: translate(-14.508528px,3.473297px);animation-timing-function: cubic-bezier(0.81,-0.29,0.25,1.36)} 23% {transform: translate(-24.008528px,3.473297px)} 94% {transform: translate(-24.008528px,3.473297px);animation-timing-function: cubic-bezier(0.81,-0.29,0.25,1.36)} 99% {transform: translate(-14.508528px,3.473297px)} 100% {transform: translate(-14.508528px,3.473297px)}} #e6czno9MJVQ13_to {animation: e6czno9MJVQ13_to__to 10000ms linear infinite normal forwards}@keyframes e6czno9MJVQ13_to__to { 0% {transform: translate(19.5px,10px)} 26% {transform: translate(19.5px,10px);animation-timing-function: cubic-bezier(0.81,-0.29,0.25,1.36)} 30% {transform: translate(6px,6px)} 87% {transform: translate(6px,6px);animation-timing-function: cubic-bezier(0.81,-0.29,0.25,1.36)} 91% {transform: translate(19.5px,10px)} 100% {transform: translate(19.5px,10px)}} #e6czno9MJVQ13_ts {animation: e6czno9MJVQ13_ts__ts 10000ms linear infinite normal forwards}@keyframes e6czno9MJVQ13_ts__ts { 0% {transform: scale(1,1)} 23% {transform: scale(1,1);animation-timing-function: cubic-bezier(0.81,-0.29,0.25,1.36)} 26% {transform: scale(0.5,0.5)} 91% {transform: scale(0.5,0.5);animation-timing-function: cubic-bezier(0.81,-0.29,0.25,1.36)} 94% {transform: scale(1,1)} 100% {transform: scale(1,1)}} #e6czno9MJVQ13 {animation: e6czno9MJVQ13_c_o 10000ms linear infinite normal forwards}@keyframes e6czno9MJVQ13_c_o { 0% {opacity: 0} 23% {opacity: 0} 24% {opacity: 1} 93% {opacity: 1} 94% {opacity: 0} 100% {opacity: 0}}
]]></style>
<g id="e6czno9MJVQ3" mask="url(#e6czno9MJVQ11)"><g><g id="e6czno9MJVQ5_to" transform="translate(0,10)"><rect width="39" height="20" rx="10" ry="10" transform="translate(0,-10)" fill="#fff" stroke-width="0"/></g><g id="e6czno9MJVQ6_to" transform="translate(19.366305,10.746)"><g transform="translate(-19.366304,-10.746)"><path d="M6.81191,6.402c.104,0,.18.014.228.042.052.024.11.076.174.156l4.97999,6.48c-.012-.104-.02-.204-.024-.3-.004-.1-.006-.196-.006-.288v-6.09h1.02v8.598h-.588c-.092,0-.17-.016-.234-.048-.06-.032-.12-.086-.18-.162L7.20791,8.316c.008.1.014.198.018.294s.006.184.006.264v6.126h-1.02v-8.598h.6Z" fill="#4195d5"/><path d="M17.5202,8.826c.364,0,.7.062,1.008.186.308.12.574.296.798.528.224.228.398.512.522.852.128.336.192.72.192,1.152c0,.168-.018.28-.054.336s-.104.084-.204.084h-4.044c.008.384.06.718.156,1.002s.228.522.396.714c.168.188.368.33.6.426.232.092.492.138.78.138.268,0,.498-.03.69-.09.196-.064.364-.132.504-.204s.256-.138.348-.198c.096-.064.178-.096.246-.096.088,0,.156.034.204.102l.3.39c-.132.16-.29.3-.474.42-.184.116-.382.212-.594.288-.208.076-.424.132-.648.168-.224.04-.446.06-.666.06-.42,0-.808-.07-1.164-.21-.352-.144-.658-.352-.918-.624-.256-.276-.456-.616-.6-1.02s-.216-.868-.216-1.392c0-.424.064-.82.192-1.188.132-.368.32-.686.564-.954.244-.272.542-.484.894-.636.352-.156.748-.234,1.188-.234Zm.024.786c-.516,0-.922.15-1.218.45-.296.296-.48.708-.552,1.236h3.306c0-.248-.034-.474-.102-.678-.068-.208-.168-.386-.3-.534-.132-.152-.294-.268-.486-.348-.188-.084-.404-.126-.648-.126Z" fill="#4195d5"/><path d="M20.6152,8.922h.84c.088,0,.16.022.216.066s.094.096.114.156l1.164,3.912c.032.144.062.284.09.42.028.132.052.266.072.402.032-.136.068-.27.108-.402.04-.136.082-.276.126-.42l1.284-3.936c.02-.06.054-.11.102-.15.052-.04.116-.06.192-.06h.462c.08,0,.146.02.198.06s.088.09.108.15l1.254,3.936c.044.14.082.278.114.414.036.136.07.27.102.402.02-.132.046-.27.078-.414s.066-.278.102-.402l1.188-3.912c.02-.064.058-.116.114-.156.056-.044.122-.066.198-.066h.804L27.6772,15h-.846c-.104,0-.176-.068-.216-.204l-1.344-4.122c-.032-.092-.058-.184-.078-.276-.02-.096-.04-.19-.06-.282-.02.092-.04.186-.06.282s-.046.19-.078.282l-1.362,4.116c-.044.136-.126.204-.246.204h-.804l-1.968-6.078Z" fill="#4195d5"/><path d="M32.2987,6.402v3.432c0,.18-.004.356-.012.528-.004.172-.012.346-.024.522-.012.172-.028.35-.048.534-.016.18-.036.374-.06.582h-.726c-.024-.208-.046-.402-.066-.582-.016-.184-.03-.362-.042-.534-.012-.176-.022-.35-.03-.522-.004-.172-.006-.348-.006-.528v-3.432h1.014Zm-1.272,7.938c0-.104.018-.202.054-.294.04-.092.092-.172.156-.24.068-.068.148-.122.24-.162s.19-.06.294-.06.202.02.294.06.172.094.24.162.12.148.156.24c.04.092.06.19.06.294c0,.108-.02.208-.06.3-.036.088-.088.166-.156.234s-.148.12-.24.156c-.092.04-.19.06-.294.06s-.202-.02-.294-.06c-.092-.036-.172-.088-.24-.156-.064-.068-.116-.146-.156-.234-.036-.092-.054-.192-.054-.3Z" fill="#4195d5"/></g></g></g><mask id="e6czno9MJVQ11"><g id="e6czno9MJVQ12_to" transform="translate(-14.508528,3.473297)"><rect width="60" height="20" rx="10" ry="10" transform="translate(-6.491472,-3.473297)" fill="#fff" stroke-width="0"/></g></mask></g><g id="e6czno9MJVQ13_to" transform="translate(19.5,10)"><g id="e6czno9MJVQ13_ts" transform="scale(1,1)"><ellipse id="e6czno9MJVQ13" rx="10" ry="10" transform="translate(0,0)" opacity="0" fill="#a5ed5e" stroke-width="0"/></g></g></svg>
