<?xml version="1.0" encoding="UTF-8"?>
<!DOCTYPE svg PUBLIC "-//W3C//DTD SVG 1.1//EN" "http://www.w3.org/Graphics/SVG/1.1/DTD/svg11.dtd">
<!-- Creator: CorelDRAW 2017 -->
<svg xmlns="http://www.w3.org/2000/svg" xml:space="preserve" width="1058.33mm" height="1058.33mm" version="1.1" style="shape-rendering:geometricPrecision; text-rendering:geometricPrecision; image-rendering:optimizeQuality; fill-rule:evenodd; clip-rule:evenodd"
viewBox="0 0 105833 105833"
 xmlns:xlink="http://www.w3.org/1999/xlink">
 <defs>
  <style type="text/css">
   <![CDATA[
    .fil2 {fill:#FEFEFE}
    .fil0 {fill:#FFCC2A}
    .fil1 {fill:#1D1819;fill-rule:nonzero}
   ]]>
  </style>
 </defs>
 <g id="Layer_x0020_1">
  <metadata id="CorelCorpID_0Corel-Layer"/>
  <g id="_2851864377152">
   <path class="fil0" d="M68390 36654c1205,-13639 -3987,-24842 -15473,-33275 -11486,8434 -16678,19636 -15473,33275 -12665,-4881 -24875,-3050 -36200,5599 4861,13395 14150,21529 27219,24397 -9391,10340 -11956,22418 -7824,36055 14249,141 25123,-5708 32278,-17273 7156,11566 18030,17415 32279,17273 4131,-13637 1566,-25715 -7824,-36055 13068,-2868 22357,-11003 27218,-24397 -11324,-8649 -23535,-10480 -36200,-5599z"/>
   <path class="fil1" d="M67346 36564c587,-6641 -380,-12679 -2887,-18071 -2414,-5192 -6266,-9807 -11542,-13810 -5276,4003 -9128,8618 -11542,13810 -2507,5392 -3474,11430 -2888,18071l147 1668 -1567 -604c-6173,-2379 -12226,-3120 -18105,-2211 -5643,873 -11148,3270 -16468,7203 2346,6162 5670,11142 9903,14936 4437,3977 9893,6668 16285,8072l1768 388 -1215 1339c-4559,5020 -7463,10452 -8726,16273 -1222,5632 -913,11652 913,18037 6620,-39 12469,-1421 17507,-4117 5235,-2801 9615,-7034 13098,-12663l888 -1435 888 1435c3483,5629 7863,9861 13098,12663 5039,2696 10887,4078 17507,4117 1826,-6385 2135,-12404 913,-18037 -1263,-5821 -4167,-11253 -8726,-16273l-1216 -1339 1768 -388c6393,-1403 11848,-4094 16285,-8072 4233,-3794 7557,-8773 9903,-14936 -5320,-3933 -10825,-6330 -16468,-7203 -5879,-909 -11932,-168 -18105,2211l-1567 604 147 -1668zm-989 -18947c2458,5286 3525,11131 3190,17503 5990,-2064 11886,-2656 17642,-1766 6214,961 12244,3646 18034,8068l610 465 -262 721c-2477,6825 -6086,12326 -10745,16502 -4314,3867 -9512,6585 -15530,8153 4154,4932 6841,10245 8072,15921 1346,6204 950,12820 -1171,19823l-222 733 -772 8c-7294,72 -13736,-1393 -19282,-4361 -5128,-2744 -9475,-6763 -13004,-12029 -3530,5266 -7877,9285 -13004,12029 -5546,2968 -11988,4433 -19282,4361l-772 -8 -222 -733c-2122,-7003 -2518,-13619 -1172,-19823 1232,-5676 3919,-10989 8072,-15921 -6017,-1569 -11216,-4287 -15530,-8153 -4659,-4176 -8268,-9677 -10745,-16502l-262 -721 610 -465c5789,-4422 11820,-7107 18034,-8068 5756,-890 11652,-298 17642,1766 -334,-6372 733,-12218 3190,-17503 2659,-5719 6938,-10760 12823,-15081l618 -454 618 454c5884,4321 10163,9362 12822,15081z"/>
   <path class="fil0" d="M59950 93936c-1377,3087 -3606,5782 -7188,7856 -3563,-2299 -6047,-4855 -6956,-7787 2674,-2378 5047,-5237 7111,-8572 2044,3303 4391,6139 7033,8503zm8012 -67833l-1 2c611,3331 755,6847 428,10542 4116,-1586 8184,-2463 12190,-2628 788,-3345 636,-6891 -1020,-10760 -4260,-293 -7780,342 -11597,2843zm-29949 -721l1 2c-729,3546 -920,7305 -570,11270 -3612,-1392 -7186,-2237 -10714,-2535l-2 -1c-812,-3372 -673,-6947 999,-10851 4260,-293 7800,279 10286,2115zm-21462 36852l328 -86c3442,2063 7310,3564 11583,4502 -2588,2850 -4657,5832 -6211,8942 -3039,256 -6182,-288 -9481,-2032 56,-4270 977,-7726 3781,-11326zm72979 0l-501 -131c-3461,2087 -7354,3602 -11657,4547 2581,2842 4646,5816 6198,8918 3120,310 6348,-214 9741,-2008 -56,-4270 -977,-7726 -3781,-11326z"/>
   <path class="fil1" d="M60904 94361c-730,1636 -1688,3172 -2943,4578 -1251,1401 -2788,2664 -4675,3757l-554 321 -535 -345c-1857,-1198 -3439,-2470 -4682,-3832 -1280,-1402 -2205,-2906 -2708,-4528l-199 -642 502 -446c1299,-1155 2525,-2427 3676,-3815 1163,-1401 2244,-2910 3243,-4523l888 -1435 888 1435c989,1598 2059,3093 3208,4482 1148,1388 2360,2653 3633,3792l568 508 -310 695zm-4498 3186c927,-1039 1673,-2165 2272,-3362 -1156,-1080 -2249,-2242 -3277,-3485 -865,-1045 -1693,-2159 -2484,-3340 -802,1197 -1641,2324 -2518,3381 -1065,1284 -2191,2475 -3375,3571 438,1085 1129,2123 2039,3119 997,1093 2254,2132 3726,3125 1444,-900 2636,-1910 3618,-3009zm10573 -71798l1 -2 409 -520c2014,-1320 3960,-2149 5972,-2612 1999,-460 4041,-551 6267,-398l639 44 253 590c875,2044 1353,4007 1508,5904 155,1899 -13,3728 -431,5502l-182 773 -796 33c-1936,80 -3897,333 -5878,760 -1983,427 -3976,1027 -5976,1798l-1567 604 147 -1668c161,-1818 206,-3577 137,-5273 -69,-1709 -253,-3373 -549,-4991l45 -544zm2130 866c244,1494 398,3024 461,4587 52,1289 45,2593 -24,3911 1597,-551 3184,-996 4761,-1336 1809,-390 3614,-643 5413,-758 249,-1330 336,-2694 221,-4101 -123,-1495 -474,-3043 -1100,-4652 -1781,-82 -3425,21 -5014,386 -1578,363 -3122,991 -4718,1963zm-30126 -1623l1 2 53 597c-353,1720 -577,3495 -669,5322 -92,1818 -52,3702 120,5650l147 1668 -1567 -604c-1750,-674 -3500,-1219 -5248,-1632 -1735,-410 -3461,-688 -5176,-833l-540 -209 -2 -1 -389 -593c-432,-1794 -611,-3639 -461,-5549 150,-1911 629,-3890 1512,-5953l253 -590 639 -44c2216,-152 4255,-78 6074,276 1878,365 3527,1028 4904,2044l348 450zm-2702 5823c86,-1692 278,-3344 577,-4956 -1004,-620 -2185,-1047 -3519,-1307 -1462,-284 -3104,-366 -4894,-281 -633,1626 -985,3189 -1105,4701 -113,1437 -18,2825 245,4175 1561,166 3131,435 4710,809 1321,312 2652,700 3992,1162 -75,-1456 -77,-2890 -6,-4304zm-19991 30407l328 -86 423 -110 375 225c1670,1001 3443,1866 5315,2594 1874,728 3859,1322 5953,1782l1768 388 -1216 1339c-1258,1385 -2393,2806 -3404,4262 -1007,1450 -1889,2932 -2643,4442l-264 527 -587 50c-1607,135 -3251,58 -4938,-287 -1675,-342 -3379,-946 -5117,-1864l-565 -299 9 -638c29,-2234 288,-4263 909,-6217 625,-1966 1612,-3837 3093,-5739l561 -368zm5688 4570c-1753,-681 -3423,-1475 -5007,-2382 -1100,1513 -1854,3002 -2346,4549 -494,1555 -731,3184 -795,4965 1361,664 2689,1112 3988,1377 1272,260 2529,344 3772,284 737,-1416 1578,-2805 2524,-4166 741,-1067 1549,-2120 2423,-3157 -1571,-410 -3091,-901 -4558,-1471zm67313 -4700l501 131 561 368c1481,1902 2467,3773 3093,5739 622,1954 880,3984 909,6217l8 638 -565 299c-1792,947 -3543,1560 -5259,1895 -1721,336 -3409,392 -5071,227l-572 -57 -258 -516c-747,-1492 -1628,-2970 -2643,-4430 -1009,-1451 -2141,-2869 -3396,-4250l-1216 -1339 1768 -388c2102,-461 4101,-1061 5991,-1798 1883,-734 3667,-1609 5348,-2622l374 -226 428 111zm-252 2220c-1621,939 -3334,1761 -5136,2464 -1478,577 -3014,1073 -4604,1488 871,1034 1676,2082 2415,3145 938,1350 1779,2738 2521,4165 1277,82 2577,10 3904,-249 1343,-262 2713,-717 4114,-1400 -64,-1781 -301,-3410 -795,-4965 -503,-1581 -1278,-3101 -2418,-4648z"/>
   <g>
    <polygon class="fil2" points="51816,19883 53798,19883 54894,57402 50939,57402 "/>
    <path class="fil1" d="M51816 19488l1982 0 381 0 11 383 1096 37519 12 405 -405 0 -3955 0 -402 0 9 -402 877 -37519 9 -387 384 0zm1601 789l-1217 0 -858 36731 3148 0 -1073 -36731z"/>
    <polygon class="fil2" points="53097,75363 66997,75297 66997,70630 66500,71277 53097,70395 "/>
    <path class="fil1" d="M53491 74972l13113 -62 0 -3237 -129 -8 -12984 -855 0 4162zm13508 713l-13900 65 -395 2 0 -390 0 -4968 0 -416 418 28 13194 869 370 -481 706 -918 0 1154 0 4668 0 386 -392 2z"/>
    <path class="fil2" d="M58103 75339l-4315 20c-102,-1171 182,-3324 2214,-4042 1581,683 2254,2776 2100,4022z"/>
    <path class="fil1" d="M58104 75731l-4315 20 -362 2 -31 -360c-64,-740 16,-1848 540,-2804 381,-696 991,-1309 1936,-1643l144 -51 142 62c803,347 1393,1006 1782,1751 467,895 647,1925 554,2679l-42 343 -347 2zm-3941 -766l3567 -17c-3,-569 -163,-1259 -487,-1878 -289,-554 -707,-1045 -1257,-1327 -656,270 -1087,717 -1363,1221 -357,653 -465,1404 -461,2001z"/>
    <path class="fil2" d="M61590 75346l-3166 11c-97,-926 -94,-2424 1540,-3195 1376,702 1989,2199 1626,3184z"/>
    <path class="fil1" d="M61590 75738l-3166 11 -354 1 -37 -353c-52,-502 -77,-1163 138,-1817 223,-679 693,-1333 1625,-1773l175 -83 171 87c738,377 1281,960 1601,1588 359,702 442,1468 215,2082l-94 256 -275 1zm-2802 -775l2497 -8c53,-365 -31,-790 -239,-1198 -225,-440 -593,-854 -1089,-1150 -585,325 -889,764 -1038,1216 -126,384 -147,786 -131,1141z"/>
    <path class="fil2" d="M64817 75414l-2749 9c-84,-804 -82,-2106 1337,-2775 1195,610 1728,1910 1412,2766z"/>
    <path class="fil1" d="M64817 75806l-2749 9 -354 1 -37 -353c-46,-442 -68,-1022 122,-1600 198,-601 613,-1181 1439,-1571l175 -83 171 87c652,333 1132,849 1415,1402 317,621 390,1302 188,1850l-94 256 -275 1zm-2384 -777l2073 -7c32,-296 -41,-637 -209,-966 -187,-367 -491,-713 -900,-962 -478,273 -728,638 -851,1012 -101,309 -123,632 -113,923z"/>
    <path class="fil2" d="M56322 58307l-3027 2813c-295,-3777 -313,-8481 547,-9158 704,-554 619,-1661 1755,-1681 557,464 -406,1701 25,2001 977,680 681,3522 700,6026z"/>
    <path class="fil1" d="M56591 58595l-3027 2813 -598 556 -63 -815c-164,-2105 -243,-4501 -133,-6341 94,-1571 346,-2776 829,-3157 202,-159 334,-407 463,-647 302,-565 589,-1101 1530,-1118l145 -3 112 93c497,414 321,1015 161,1562 -67,229 -195,394 -162,417 952,662 918,2690 882,4826 -9,508 -17,1024 -13,1520l1 174 -126 117zm-2961 1676l2298 -2136c-1,-453 7,-911 14,-1364 33,-1921 63,-3743 -546,-4167 -433,-301 -294,-772 -143,-1287 66,-226 137,-467 133,-615 -322,92 -473,375 -632,671 -168,314 -342,639 -669,897 -284,223 -449,1225 -530,2583 -93,1565 -46,3555 75,5417z"/>
    <path class="fil2" d="M57698 58067l-3907 785c-295,-3777 240,-6194 898,-6749 450,-381 93,-1488 983,-1745 810,464 598,1419 1029,1718 977,680 977,3487 997,5991z"/>
    <path class="fil1" d="M57775 58453l-3907 785 -436 88 -35 -444c-138,-1770 -96,-3253 56,-4395 186,-1400 557,-2327 980,-2685 74,-63 112,-266 152,-480 101,-539 210,-1121 977,-1342l161 -46 143 82c612,350 761,871 888,1320 56,198 106,373 170,417 1122,780 1144,3588 1164,6146l1 165 3 325 -319 64zm-3622 -74l3149 -633c-18,-2318 -55,-4809 -827,-5346 -295,-205 -381,-508 -478,-849 -72,-253 -153,-539 -368,-738 -172,139 -222,404 -269,654 -67,356 -130,693 -418,936 -284,240 -550,989 -709,2185 -132,993 -176,2268 -81,3790z"/>
    <path class="fil2" d="M57317 63694l-4285 2778c-369,-3730 -393,-8376 685,-9044 882,-547 1269,-1640 2692,-1661 698,458 -509,1680 31,1976 1225,671 853,3479 877,5951z"/>
    <path class="fil1" d="M57531 64023l-4285 2778 -541 351 -63 -642c-206,-2088 -306,-4461 -169,-6278 118,-1564 434,-2762 1037,-3138l0 -1c254,-157 474,-380 695,-604 540,-547 1085,-1099 2201,-1115l121 -2 99 65c636,417 405,1037 195,1601 -75,201 -237,334 -190,360 1187,651 1143,2667 1098,4793 -11,502 -22,1010 -17,1499l2 215 -181 117zm-4168 1766l3561 -2308c-1,-434 9,-872 18,-1305 41,-1881 79,-3666 -691,-4089 -548,-300 -365,-789 -167,-1323 84,-226 175,-468 152,-596 -680,69 -1078,472 -1472,871 -256,259 -511,517 -839,721l-2 0c-358,222 -565,1202 -665,2529 -120,1592 -55,3622 106,5499z"/>
    <path class="fil2" d="M59040 63458l-4895 775c-369,-3730 26,-6117 849,-6665 564,-376 392,-1470 1507,-1723 1015,458 749,1401 1289,1697 1225,671 1225,3444 1249,5916z"/>
    <path class="fil1" d="M59102 63845l-4895 775 -411 65 -41 -414c-182,-1841 -180,-3367 -34,-4517 166,-1304 537,-2169 1057,-2515l0 0c120,-82 206,-283 297,-497 219,-515 461,-1082 1340,-1282l128 -29 119 54c743,335 930,852 1090,1298 69,191 130,360 226,413 1399,766 1426,3556 1451,6096l2 162 3 338 -334 53zm-4604 -65l4147 -657c-23,-2271 -71,-4705 -1043,-5237 -354,-194 -463,-496 -586,-837 -97,-270 -209,-580 -555,-784 -388,142 -531,478 -662,786 -139,326 -269,632 -585,843l-2 2c-327,218 -576,890 -712,1958 -128,1007 -138,2330 -1,3926z"/>
    <polygon class="fil2" points="53031,70591 65582,71216 65582,67304 65103,67956 53031,66472 "/>
    <path class="fil1" d="M53425 70217l11764 587 0 -2440 -133 -16 -11630 -1430 0 3300zm12139 1392l-12551 -626 -375 -19 0 -374 0 -4118 0 -445 441 54 11844 1456 342 -466 711 -967 0 1199 0 3912 0 413 -412 -21z"/>
    <path class="fil2" d="M59855 68202c2314,251 4144,890 4086,1426 -58,536 -1982,768 -4297,517 -2314,-251 -4144,-890 -4086,-1427 58,-536 1982,-768 4297,-516z"/>
    <path class="fil1" d="M59896 67811l1 0 0 0c1186,129 2254,359 3020,626 922,322 1466,758 1415,1232 -52,476 -678,786 -1647,903 -797,96 -1877,92 -3053,-34l-1 0 -29 -3c-1186,-129 -2254,-359 -3020,-626 -922,-322 -1466,-758 -1414,-1233 52,-476 677,-786 1647,-903 803,-96 1894,-92 3082,37zm2763 1368c-706,-247 -1701,-460 -2816,-583l-15 0 -28 -5c-1121,-121 -2144,-126 -2892,-36 -585,70 -951,144 -957,205 -7,62 335,214 892,408 706,247 1700,460 2816,583l0 0 29 3c1126,122 2155,128 2907,37 585,-70 951,-144 958,-205 7,-62 -335,-214 -892,-408z"/>
    <path class="fil2" d="M62183 67519l-8853 -1088c178,-4692 5884,-2289 5857,-3695 115,2067 3414,771 2996,4783z"/>
    <path class="fil1" d="M62135 67910l-8853 -1088 -358 -44 14 -361c129,-3399 2768,-3475 4612,-3528 707,-20 1247,-36 1245,-146l785 -28c34,615 514,850 1044,1110 1041,510 2225,1090 1950,3735l-42 399 -397 -49zm-8385 -1824l8071 992c67,-1761 -786,-2179 -1542,-2549 -529,-259 -1023,-501 -1288,-1001 -359,115 -857,129 -1420,146 -1469,42 -3542,102 -3821,2413z"/>
    <path class="fil2" d="M63667 67780l-8853 -1088c28,-3385 4641,-1822 4614,-3227 1439,1439 5027,128 4239,4316z"/>
    <path class="fil1" d="M63619 68171l-8853 -1088 -348 -43 3 -351c20,-2398 1920,-2653 3400,-2852 670,-90 1218,-164 1214,-366l-19 -974 689 689c402,402 1064,563 1723,724 1614,393 3218,783 2624,3943l-68 363 -365 -45zm-8387 -1824l8107 997c269,-2096 -909,-2383 -2094,-2671 -577,-140 -1156,-281 -1643,-577 -318,338 -951,423 -1676,520 -1100,147 -2488,334 -2694,1731z"/>
    <polygon class="fil2" points="52736,75363 38836,75297 38836,70630 39334,71277 52736,70395 "/>
    <path class="fil1" d="M52735 75751l-13900 -65 -392 -2 0 -386 0 -4668 0 -1154 706 918 370 481 13194 -869 418 -28 0 416 0 4968 0 390 -395 -2zm-13505 -840l13113 62 0 -4162 -12984 855 -129 8 0 3237z"/>
    <path class="fil2" d="M47731 75339l4315 20c102,-1171 -182,-3324 -2214,-4042 -1581,683 -2254,2776 -2100,4022z"/>
    <path class="fil1" d="M48103 74949l3567 17c4,-597 -103,-1348 -461,-2001 -276,-504 -707,-951 -1363,-1221 -550,283 -968,774 -1257,1327 -323,619 -483,1309 -487,1878zm3942 803l-4315 -20 -347 -2 -42 -343c-93,-754 87,-1785 554,-2679 389,-745 979,-1404 1782,-1751l142 -62 144 51c945,334 1555,947 1936,1643 524,956 604,2064 540,2804l-31 360 -362 -2z"/>
    <path class="fil2" d="M44244 75346l3166 11c97,-926 94,-2424 -1540,-3195 -1376,702 -1989,2199 -1626,3184z"/>
    <path class="fil1" d="M44549 74955l2497 8c16,-355 -5,-757 -131,-1141 -148,-451 -452,-891 -1038,-1216 -496,296 -864,709 -1089,1150 -208,408 -293,834 -239,1198zm2861 794l-3166 -11 -275 -1 -94 -256c-226,-614 -143,-1380 215,-2082 321,-628 864,-1212 1601,-1588l171 -87 175 83c933,440 1402,1094 1625,1773 215,654 190,1315 138,1817l-37 353 -354 -1z"/>
    <path class="fil2" d="M41017 75414l2749 9c84,-804 82,-2106 -1337,-2775 -1195,610 -1728,1910 -1412,2766z"/>
    <path class="fil1" d="M41327 75023l2073 7c9,-291 -12,-614 -113,-923 -123,-374 -373,-739 -851,-1012 -409,250 -714,595 -901,962l1 1c-168,329 -241,671 -209,966zm2439 793l-2749 -9 -275 -1 -94 -256c-202,-548 -129,-1228 188,-1850l2 0c283,-555 763,-1070 1413,-1402l171 -87 175 83c825,389 1241,969 1438,1571 190,577 168,1158 122,1600l-37 353 -354 -1z"/>
    <path class="fil2" d="M49511 58307l3027 2813c295,-3777 313,-8481 -547,-9158 -704,-554 -619,-1661 -1755,-1681 -557,464 406,1701 -25,2001 -977,680 -681,3522 -700,6026z"/>
    <path class="fil1" d="M49905 58135l2298 2136c121,-1861 168,-3851 75,-5416 -81,-1359 -247,-2360 -530,-2584 -328,-258 -501,-583 -669,-897 -158,-296 -310,-579 -632,-671 -4,147 67,389 133,615 151,514 290,986 -143,1287 -609,424 -578,2246 -546,4167 8,453 15,911 14,1364zm2365 3273l-3027 -2813 -126 -117 1 -174c4,-496 -5,-1011 -13,-1520 -36,-2137 -71,-4164 882,-4827 33,-23 -95,-188 -162,-417 -161,-548 -337,-1148 161,-1562l112 -93 145 3c941,17 1227,552 1530,1118 128,240 261,488 463,647 483,381 736,1586 829,3157 110,1840 31,4235 -133,6341l-64 815 -598 -556z"/>
    <path class="fil2" d="M48135 58067l3907 785c295,-3777 -240,-6194 -898,-6749 -450,-381 -93,-1488 -983,-1745 -810,464 -598,1419 -1029,1718 -977,680 -977,3487 -997,5991z"/>
    <path class="fil1" d="M48531 57746l3149 633c95,-1522 51,-2797 -81,-3790 -159,-1196 -425,-1945 -709,-2185 -288,-243 -351,-580 -418,-936 -47,-249 -97,-515 -269,-654 -214,199 -296,486 -368,739 -97,341 -183,643 -478,849 -772,537 -808,3027 -827,5346zm3434 1492l-3907 -785 -319 -64 3 -325 1 -164c20,-2559 42,-5367 1164,-6147 64,-44 114,-219 170,-417 128,-449 276,-969 888,-1320l143 -82 161 46c767,221 876,803 977,1342 40,214 78,417 152,480 423,358 794,1284 980,2685 152,1142 194,2624 56,4395l-35 444 -435 -88z"/>
    <path class="fil2" d="M48516 63694l4285 2778c369,-3730 393,-8376 -685,-9044 -882,-547 -1269,-1640 -2692,-1661 -698,458 509,1680 -31,1976 -1225,671 -853,3479 -877,5951z"/>
    <path class="fil1" d="M48910 63481l3561 2308c161,-1876 226,-3907 106,-5499 -100,-1327 -308,-2307 -665,-2529l-2 0c-329,-204 -584,-462 -839,-721 -394,-399 -792,-802 -1472,-871 -23,127 68,370 152,596 199,533 381,1023 -167,1323 -770,422 -732,2207 -691,4089 9,433 19,871 18,1305zm3678 3320l-4285 -2778 -181 -117 2 -215c5,-489 -6,-997 -17,-1499 -46,-2126 -89,-4142 1097,-4793 46,-25 -115,-159 -190,-360 -210,-564 -441,-1183 195,-1601l99 -65 121 2c1115,16 1661,568 2201,1115 221,224 441,447 695,604l0 1c603,375 918,1574 1037,3138 137,1817 38,4190 -169,6278l-64 642 -541 -351z"/>
    <path class="fil2" d="M46793 63458l4895 775c369,-3730 -26,-6117 -849,-6665 -564,-376 -392,-1470 -1507,-1723 -1015,458 -749,1401 -1289,1697 -1225,671 -1225,3444 -1249,5916z"/>
    <path class="fil1" d="M47189 63123l4147 657c137,-1597 127,-2920 -1,-3926 -136,-1069 -386,-1741 -712,-1958l-2 -2c-316,-211 -446,-516 -585,-843 -131,-308 -274,-644 -662,-786 -346,204 -458,514 -555,784 -123,341 -232,643 -586,837 -972,533 -1020,2966 -1043,5237zm4438 1497l-4895 -775 -334 -53 3 -338 2 -162c25,-2540 52,-5329 1451,-6096 96,-53 157,-222 226,-413 161,-446 348,-963 1090,-1298l119 -54 128 29c880,200 1121,766 1340,1282 91,214 177,415 297,497l0 0c520,346 891,1211 1057,2515 146,1150 148,2675 -34,4517l-41 414 -411 -65z"/>
    <polygon class="fil2" points="52802,70591 40251,71216 40251,67304 40730,67956 52802,66472 "/>
    <path class="fil1" d="M52820 70983l-12551 626 -412 21 0 -413 0 -3912 0 -1199 711 967 342 466 11844 -1456 441 -54 0 445 0 4118 0 374 -375 19zm-12176 -179l11764 -587 0 -3300 -11630 1430 -133 16 0 2440z"/>
    <path class="fil2" d="M45979 68202c-2314,251 -4144,890 -4086,1426 58,536 1982,768 4297,517 2314,-251 4144,-890 4086,-1427 -58,-536 -1982,-768 -4297,-516z"/>
    <path class="fil1" d="M45937 67811l0 0 1 0c1188,-129 2279,-134 3082,-37 969,117 1595,427 1647,903 52,475 -493,911 -1414,1233 -766,267 -1834,497 -3020,626l-29 3 -1 0c-1177,126 -2256,130 -3053,34 -969,-116 -1595,-427 -1647,-903 -52,-474 493,-911 1415,-1232 766,-267 1834,-497 3020,-626zm55 785c-1116,123 -2110,337 -2816,583 -557,194 -898,346 -892,408 6,60 372,134 958,205 752,90 1780,85 2907,-37l29 -3 0 0c1116,-123 2110,-337 2816,-583 557,-194 898,-346 892,-408 -6,-60 -372,-134 -957,-205 -748,-90 -1772,-85 -2892,36l-28 5 -15 0z"/>
    <path class="fil2" d="M43650 67519l8853 -1088c-178,-4692 -5884,-2289 -5857,-3695 -115,2067 -3414,771 -2996,4783z"/>
    <path class="fil1" d="M44012 67078l8071 -992c-279,-2310 -2352,-2370 -3821,-2413 -563,-16 -1061,-31 -1420,-146 -264,500 -758,742 -1288,1001 -756,370 -1609,788 -1542,2549zm8539 -257l-8853 1088 -397 49 -42 -399c-275,-2644 909,-3225 1950,-3735 530,-260 1010,-495 1044,-1110l785 28c-2,110 538,126 1245,146 1844,53 4483,129 4612,3528l14 361 -358 44z"/>
    <path class="fil2" d="M42167 67780l8853 -1088c-28,-3385 -4641,-1822 -4614,-3227 -1439,1439 -5027,128 -4239,4316z"/>
    <path class="fil1" d="M42495 67343l8107 -997c-206,-1397 -1594,-1584 -2694,-1731 -724,-97 -1357,-182 -1676,-520 -487,296 -1066,437 -1643,577 -1185,288 -2363,575 -2094,2671zm8573 -261l-8853 1088 -365 45 -68 -363c-595,-3160 1009,-3550 2624,-3943 659,-160 1321,-321 1723,-724l689 -689 -19 974c-4,203 544,276 1214,366 1481,199 3381,454 3400,2852l3 351 -347 43z"/>
    <polygon class="fil2" points="51623,19067 54210,19067 54210,20063 51623,20063 "/>
    <path class="fil1" d="M51623 18674l2587 0 394 0 0 394 0 996 0 394 -394 0 -2587 0 -394 0 0 -394 0 -996 0 -394 394 0zm2193 787l-1800 0 0 209 1800 0 0 -209z"/>
    <path class="fil2" d="M51641 17626l2551 0c299,0 544,286 544,635l0 205c0,350 -245,636 -544,636l-2551 0c-299,0 -544,-286 -544,-636l0 -205c0,-349 245,-635 544,-635z"/>
    <path class="fil1" d="M51641 17231l2551 0c270,0 512,125 684,326 158,184 256,434 256,705l0 205c0,271 -98,521 -256,705 -172,201 -414,326 -684,326l-2551 0c-270,0 -512,-125 -684,-326 -158,-184 -256,-434 -256,-705l0 -205c0,-271 98,-521 256,-705 172,-201 414,-326 684,-326zm2551 791l-2551 0c-29,0 -59,18 -84,48 -39,46 -64,114 -64,192l0 205c0,78 25,146 64,192 25,29 55,48 84,48l2551 0c29,0 59,-18 84,-48 39,-46 64,-114 64,-192l0 -205c0,-78 -25,-146 -64,-192 -25,-29 -55,-48 -84,-48z"/>
    <path class="fil2" d="M54192 17626l-2551 0c170,-2708 2299,-2507 2551,0z"/>
    <path class="fil1" d="M54192 18020l-2551 0 -419 0 26 -418c65,-1037 408,-1717 845,-2056 232,-179 492,-268 757,-268 261,0 520,85 756,253 477,340 873,1039 975,2057l43 432 -434 0zm-2113 -787l1654 0c-117,-529 -334,-886 -581,-1062 -101,-72 -205,-109 -301,-109 -92,0 -187,35 -278,105 -221,171 -406,521 -494,1065z"/>
    <polygon class="fil2" points="37190,75483 68643,75483 68643,76859 37190,76859 "/>
    <path class="fil1" d="M37190 75089l31453 0 394 0 0 394 0 1376 0 394 -394 0 -31453 0 -394 0 0 -394 0 -1376 0 -394 394 0zm31060 788l-30666 0 0 588 30666 0 0 -588z"/>
    <polygon class="fil2" points="35448,76767 70386,76767 70386,78142 35448,78142 "/>
    <path class="fil1" d="M35448 76373l34938 0 394 0 0 394 0 1375 0 394 -394 0 -34938 0 -394 0 0 -394 0 -1375 0 -394 394 0zm34544 788l-34150 0 0 588 34150 0 0 -588z"/>
    <polygon class="fil2" points="33522,77952 72311,77952 72311,79426 33522,79426 "/>
    <path class="fil1" d="M33522 77558l38789 0 394 0 0 394 0 1474 0 394 -394 0 -38789 0 -394 0 0 -394 0 -1474 0 -394 394 0zm38395 789l-38001 0 0 685 38001 0 0 -685z"/>
    <polygon class="fil2" points="31321,79237 74512,79237 74512,80527 31321,80527 "/>
    <path class="fil1" d="M31321 78843l43191 0 394 0 0 394 0 1290 0 394 -394 0 -43191 0 -394 0 0 -394 0 -1290 0 -394 394 0zm42797 787l-42404 0 0 502 42404 0 0 -502z"/>
    <polygon class="fil2" points="29029,80618 76805,80618 76805,81902 29029,81902 "/>
    <path class="fil1" d="M29029 80225l47776 0 390 0 0 394 0 1284 0 394 -390 0 -47776 0 -390 0 0 -394 0 -1284 0 -394 390 0zm47386 787l-46996 0 0 496 46996 0 0 -496z"/>
   </g>
   <path class="fil1" d="M30691 66489l-107 -675 2481 -393c386,-61 636,-108 749,-144 198,-62 342,-158 436,-287 92,-130 124,-287 95,-471 -25,-156 -85,-277 -178,-364 -93,-86 -213,-136 -358,-150 -143,-14 -444,15 -900,87l-2534 401 -107 -677 2406 -381c614,-97 1064,-138 1346,-124 284,16 526,112 729,290 203,178 330,436 383,772 55,349 28,633 -82,852 -109,218 -284,391 -525,520 -241,129 -704,247 -1390,356l-2444 387zm25292 -25609l659 60c-62,594 107,938 507,1030 197,46 366,23 507,-70 141,-91 231,-225 271,-399 24,-103 25,-195 2,-276 -23,-82 -70,-155 -141,-220 -70,-65 -248,-187 -534,-368 -256,-161 -437,-313 -539,-456 -104,-142 -173,-315 -207,-516 -34,-202 -26,-409 23,-620 57,-246 157,-457 300,-632 144,-174 314,-292 509,-354 196,-60 420,-61 675,-3 381,88 651,274 810,561 160,285 195,650 106,1093l-664 -111c27,-250 4,-434 -69,-553 -73,-118 -198,-197 -374,-238 -176,-41 -322,-30 -436,32 -115,62 -187,155 -216,282 -28,123 -9,236 58,340 67,105 244,243 532,415 304,186 515,355 634,509 119,154 195,336 229,543 33,208 19,448 -44,719 -91,392 -273,697 -545,916 -273,218 -635,276 -1084,172 -795,-183 -1118,-802 -969,-1856zm3670 2644l700 -1823 -174 -2944 734 282 73 1994 1376 -1437 721 277 -2107 2075 -698 1817 -625 -240zm1960 956l2319 -4017 580 335 -2319 4017 -580 -335zm3547 2386l-591 -429 384 -1024 -1074 -781 -841 691 -578 -420 3774 -2991 576 418 -1650 4535zm78 -2211l642 -1661 -1376 1128 734 534zm132 2568l3337 -3222 465 482 -1313 1268 915 948 1313 -1268 467 484 -3336 3222 -467 -484 1459 -1409 -916 -948 -1459 1409 -465 -482zm2940 3619l4017 -2319 335 580 -1784 1030 2463 147 453 784 -2191 -182 -1792 2559 -435 -753 1427 -1882 -944 -84 -1214 701 -335 -580zm5919 1421l218 633 -2375 818c-370,127 -607,217 -713,271 -185,94 -310,213 -380,355 -69,142 -74,299 -15,472 50,146 129,253 236,321 106,66 232,94 377,82 144,-11 434,-92 871,-243l2426 -835 219 636 -2304 793c-588,203 -1023,321 -1304,357 -281,35 -536,-15 -765,-152 -230,-137 -398,-363 -507,-679 -113,-328 -134,-608 -62,-838 70,-230 214,-429 430,-596 216,-167 652,-363 1308,-589l2340 -806zm-2999 7676l-101 -723 1003 -435 -185 -1315 -1082 -125 -99 -707 4774 637 99 704 -4408 1964zm1645 -1480l1641 -692 -1767 -207 126 899zm-1709 1901l4600 80 -12 670 -3818 -67 -29 1671 -782 -14 41 -2341zm-567 5791l114 -721 1086 -123 208 -1312 -998 -436 112 -705 4379 2005 -111 703 -4790 589zm2006 -934l1772 -183 -1630 -714 -142 897zm-37853 -2839l-4638 81 -12 -667 3073 -1442 -3097 54 -11 -637 4638 -81 12 689 -3001 1418 3024 -53 11 637zm62 -3403l-4593 -646 95 -676 4593 646 -95 676zm331 -2154l-4792 136 167 -724 3538 -63 -3159 -1581 164 -710 4247 2225 -165 715zm602 -2247l-4238 -1887 1024 -2300 717 319 -746 1676 939 418 694 -1558 713 318 -693 1558 1153 513 771 -1733 714 318 -1049 2357zm1301 -2890l-3890 -2526 786 -1209c201,-309 380,-508 536,-595 156,-87 348,-118 575,-90 229,27 462,119 702,275 304,198 508,422 609,672 101,251 97,512 -11,782 179,-58 353,-90 523,-93 170,-4 453,23 847,82l983 148 -444 684 -1118 -133c-402,-49 -660,-72 -772,-67 -112,3 -202,26 -270,67 -68,41 -145,128 -230,260l-77 119 1624 1055 -372 573zm-1873 -2031l277 -427c169,-260 264,-434 284,-521 21,-88 7,-179 -43,-274 -49,-94 -139,-184 -268,-268 -124,-81 -238,-123 -342,-128 -104,-5 -195,22 -272,80 -54,40 -165,190 -332,447l-292 450 986 641zm2579 -1766l400 -543c479,358 864,387 1154,86 143,-148 213,-307 207,-477 -4,-170 -71,-316 -200,-441 -76,-73 -155,-121 -236,-143 -82,-22 -170,-18 -263,10 -93,28 -292,120 -599,277 -274,141 -500,220 -677,236 -178,18 -362,-11 -554,-84 -191,-74 -365,-186 -521,-337 -182,-176 -310,-371 -385,-585 -74,-214 -86,-423 -35,-624 52,-202 169,-398 354,-589 277,-287 580,-427 910,-418 330,7 662,163 996,467l-446 521c-201,-151 -371,-225 -512,-223 -140,3 -274,71 -402,204 -128,132 -196,265 -203,397 -8,132 35,242 128,332 91,88 198,128 323,123 126,-4 338,-89 638,-250 321,-170 578,-267 773,-292 195,-25 392,2 588,79 197,77 395,213 595,406 290,280 456,594 500,943 44,350 -98,694 -425,1032 -577,598 -1281,563 -2109,-107zm3399 -1295l-2856 -3655 538 -420 2856 3655 -538 420zm1703 -1246l-2099 -3232 -845 549 -428 -658 2260 -1468 428 658 -843 547 2099 3232 -573 372zm4266 -2206l-680 303 -700 -842 -1237 551 173 1077 -665 296 -680 -4775 663 -295 3127 3685zm-1898 -1163l-1126 -1383 281 1759 846 -377zm1749 -387l631 -238c206,561 514,795 921,701 201,-47 346,-142 434,-288 89,-145 112,-304 72,-479 -24,-103 -64,-186 -121,-248 -57,-63 -133,-108 -226,-135 -93,-27 -310,-58 -652,-94 -306,-31 -539,-87 -697,-171 -158,-82 -298,-206 -418,-372 -120,-166 -205,-355 -253,-567 -57,-246 -59,-480 -5,-701 55,-220 158,-401 311,-543 153,-141 359,-241 618,-301 389,-90 719,-42 991,145 273,185 467,497 580,934l-658 194c-86,-236 -188,-391 -308,-465 -119,-73 -269,-90 -448,-49 -179,41 -308,116 -386,222 -78,107 -103,222 -74,348 29,123 96,216 204,280 108,65 332,110 671,138 361,32 630,91 807,176 177,86 327,215 450,386 123,172 216,394 278,665 90,393 59,747 -95,1064 -154,317 -460,529 -918,634 -810,187 -1381,-225 -1710,-1238z"/>
  </g>
 </g>
</svg>
